<svg xmlns="http://www.w3.org/2000/svg" viewBox="0 0 64 64" role="img" aria-label="Microsoft Excel">
  <rect width="64" height="64" rx="10" fill="#185C37"/>
  <path fill="#21A366" d="M28 10h22a4 4 0 0 1 4 4v36a4 4 0 0 1-4 4H28z"/>
  <path fill="#107C41" d="M28 16h22v8H28zm0 12h22v8H28zm0 12h22v8H28z"/>
  <path fill="#33C481" d="M39 16h11v8H39zm0 12h11v8H39zm0 12h11v8H39z"/>
  <path fill="#0F5132" d="M10 16 32 12v40l-22-4z"/>
  <path fill="#fff" d="m17.4 25 4 7-4.4 7h4.1l2.4-4.5 2.4 4.5h4.4l-4.6-7.2 4.3-6.8h-4.1l-2.2 4.2-2.1-4.2z"/>
</svg>
